# xmcd
#
# Track frame offsets:
#	150
#	17839
#	34280
#	50568
#	68913
#	88066
#	103580
#	121557
#	134044
#	151028
#	167212
#	184652
#	201877
#	218532
#	236484
#	254195
#	270172
#	285669
#	300907
#	317814
#	337317
#
# Disc length: 4768 seconds
#
# Revision: 0
# Processed by: cddbd v1.5.2PL0 Copyright (c) Steve Scherf et al.
# Submitted via: EasyCDDAExtractor 16.0.9.1
#
DISCID=30129e15
DTITLE=Various Artist - Viva Super Dance Vol.50
DYEAR=2005
DGENRE=Dance
TTITLE0=Clubraiders - Move Your Hands Up
TTITLE1=Alex Cole - Life For Living
TTITLE2=Deep Spirit - Lonely (DJ Lhasa Remix)
TTITLE3=Interphace - No One Else
TTITLE4=Gwen Stefani - What You Waiting For (Orangefuzz Mix)
TTITLE5=Kylie Minogue - I Believ In You (Mark Jason Radio Edit)
TTITLE6=Skam - Can You Feel Me Now
TTITLE7=Spring Break - Big Bad Love
TTITLE8=Destiny's Child - Lose My Breath (Speedbreaker Mix)
TTITLE9=Sven R-G. feat. Basst-T - On A Party Trip
TTITLE10=Scooter - One (Always Hardcore)
TTITLE11=Staccato - Changes
TTITLE12=JJ Spencer - Better Safe Than Sorry
TTITLE13=Marc Korn - Summer Of Love (Mysterio Mix)
TTITLE14=Lunaspace - Show Me The Light
TTITLE15=Tune Up! - Ravers Fantasy
TTITLE16=Elissa - I Draem (Original Mix)
TTITLE17=Dave Armstrong - Nitelife
TTITLE18=FNP vs. RW - Angels Return
TTITLE19=Beams Hands On vs. Elton John - Sacrifice 2005
TTITLE20=DJ Bum Bum - Without You (Easy Extended)
EXTD=
EXTT0=
EXTT1=
EXTT2=
EXTT3=
EXTT4=
EXTT5=
EXTT6=
EXTT7=
EXTT8=
EXTT9=
EXTT10=
EXTT11=
EXTT12=
EXTT13=
EXTT14=
EXTT15=
EXTT16=
EXTT17=
EXTT18=
EXTT19=
EXTT20=
PLAYORDER=
